<svg xmlns="http://www.w3.org/2000/svg" width="15.951" height="16.849" viewBox="0 0 15.951 16.849">
  <g id="Iconly_Light-Outline_Arrow---Right" data-name="Iconly/Light-Outline/Arrow---Right" transform="translate(-11.287 -4.951)">
    <g id="Arrow---Right" transform="translate(11.287 21.801) rotate(-90)">
      <path id="Combined-Shape" d="M8.424,0a.933.933,0,0,1,.924.806l.009.127V12.76l5.9-5.923a.933.933,0,0,1,1.412,1.211l-.09.1L9.086,15.676a.936.936,0,0,1-.155.125l-.051.03-.046.025-.07.03-.054.02-.07.019-.049.011-.074.01-.058,0H8.389l-.055,0,.091,0a.938.938,0,0,1-.172-.016l-.041-.008c-.028-.007-.055-.014-.082-.023l-.041-.015c-.028-.011-.055-.023-.081-.036l-.038-.02-.06-.036-.042-.029-.011-.008a.938.938,0,0,1-.093-.082h0L.272,8.153A.933.933,0,0,1,1.489,6.746l.1.091,5.9,5.921V.933A.933.933,0,0,1,8.424,0Z" transform="translate(0)" fill="#fff"/>
    </g>
  </g>
</svg>
