<svg xmlns="http://www.w3.org/2000/svg" width="11.7" height="12.424" viewBox="0 0 11.7 12.424">
  <g id="Iconly_Light-Outline_Arrow---Right" data-name="Iconly/Light-Outline/Arrow---Right" transform="translate(-11.137 -4.77)">
    <g id="Arrow---Right" transform="translate(11.287 16.994) rotate(-90)">
      <path id="Combined-Shape" d="M6.021,0a.667.667,0,0,1,.661.576l.006.09V9.12L10.9,4.886a.667.667,0,0,1,1.009.866l-.064.075L6.494,11.2a.669.669,0,0,1-.11.09l-.036.021-.033.018-.05.022-.039.014-.05.014-.035.008-.053.007-.041,0H6l-.039,0,.065,0a.67.67,0,0,1-.123-.011l-.029-.006-.058-.017-.029-.011c-.02-.008-.039-.016-.058-.026L5.7,11.316l-.043-.026-.03-.021-.008-.006a.671.671,0,0,1-.067-.058h0L.194,5.827a.667.667,0,0,1,.87-1.005l.075.065L5.354,9.118V.667A.667.667,0,0,1,6.021,0Z" transform="translate(0)" fill="#5abf45" stroke="#59c044" stroke-width="0.3"/>
    </g>
  </g>
</svg>
