<svg xmlns="http://www.w3.org/2000/svg" width="17.596" height="17.592" viewBox="0 0 17.596 17.592">
  <path id="Icon_awesome-instagram" data-name="Icon awesome-instagram" d="M8.795,6.523a4.51,4.51,0,1,0,4.51,4.51A4.5,4.5,0,0,0,8.795,6.523Zm0,7.443a2.932,2.932,0,1,1,2.932-2.932,2.938,2.938,0,0,1-2.932,2.932Zm5.747-7.627A1.052,1.052,0,1,1,13.49,5.287,1.05,1.05,0,0,1,14.542,6.339Zm2.987,1.068a5.206,5.206,0,0,0-1.421-3.686A5.241,5.241,0,0,0,12.422,2.3c-1.452-.082-5.806-.082-7.258,0A5.233,5.233,0,0,0,1.478,3.717,5.223,5.223,0,0,0,.057,7.4c-.082,1.452-.082,5.806,0,7.258a5.206,5.206,0,0,0,1.421,3.686,5.247,5.247,0,0,0,3.686,1.421c1.452.082,5.806.082,7.258,0a5.206,5.206,0,0,0,3.686-1.421,5.241,5.241,0,0,0,1.421-3.686c.082-1.452.082-5.8,0-7.254ZM15.653,16.22a2.969,2.969,0,0,1-1.672,1.672c-1.158.459-3.906.353-5.186.353s-4.032.1-5.186-.353A2.969,2.969,0,0,1,1.937,16.22c-.459-1.158-.353-3.906-.353-5.186S1.482,7,1.937,5.848A2.969,2.969,0,0,1,3.609,4.176c1.158-.459,3.906-.353,5.186-.353s4.032-.1,5.186.353a2.969,2.969,0,0,1,1.672,1.672c.459,1.158.353,3.906.353,5.186S16.112,15.065,15.653,16.22Z" transform="translate(0.005 -2.238)" fill="#898989"/>
</svg>
