<svg xmlns="http://www.w3.org/2000/svg" width="17.586" height="17.586" viewBox="0 0 17.586 17.586">
  <path id="Icon_awesome-linkedin-in" data-name="Icon awesome-linkedin-in" d="M3.937,17.587H.29V5.845H3.937ZM2.112,4.244A2.122,2.122,0,1,1,4.223,2.112,2.129,2.129,0,0,1,2.112,4.244ZM17.583,17.587H13.944V11.871c0-1.362-.027-3.109-1.9-3.109-1.9,0-2.186,1.48-2.186,3.011v5.814H6.22V5.845h3.5v1.6h.051a3.831,3.831,0,0,1,3.45-1.9c3.69,0,4.368,2.43,4.368,5.586v6.45Z" transform="translate(0 0)" fill="#898989"/>
</svg>
