<svg xmlns="http://www.w3.org/2000/svg" width="46.9" height="37.9" viewBox="0 0 46.9 37.9">
  <path id="Union_18" data-name="Union 18" d="M4.047,37.9A4.062,4.062,0,0,1,0,33.81V4.089A4.062,4.062,0,0,1,4.047,0H42.781A4.077,4.077,0,0,1,46.9,4.089V33.737A4.186,4.186,0,0,1,42.781,37.9ZM1.807,4.089V33.81a2.263,2.263,0,0,0,2.24,2.264H42.853a2.263,2.263,0,0,0,2.24-2.264h-.072V4.089a2.263,2.263,0,0,0-2.24-2.263H4.047A2.263,2.263,0,0,0,1.807,4.089ZM5.347,33.519a.962.962,0,0,1-.939-.949V5.477a.962.962,0,0,1,.939-.949H41.48a.859.859,0,0,1,.939.876V8.4a1,1,0,0,1-.867.876A1.017,1.017,0,0,1,40.54,8.4V6.353H6.215V31.62h34.4V11.465a1,1,0,0,1,.867-.876,1.016,1.016,0,0,1,1.011.876v21.1a.961.961,0,0,1-.939.949Zm10.623-6.353H15.9l-.145-.073-.072-.073-.144-.073-.072-.073-.072-.073c-.072-.073-.072-.073-.072-.146v-.147a18.955,18.955,0,0,1-.289-2.848A13.04,13.04,0,0,1,27.894,10.516a13.031,13.031,0,0,1,2.89.365.929.929,0,0,1,.723.73,12.715,12.715,0,0,1,.289,2.848A12.991,12.991,0,0,1,18.861,27.531,13.031,13.031,0,0,1,15.971,27.165ZM28.256,14.021a.933.933,0,0,1,0,1.314L18.211,25.559h.795a13.908,13.908,0,0,0,1.735-.146,11.179,11.179,0,0,0,9.105-12.926,17.555,17.555,0,0,0-1.951-.146,10.754,10.754,0,0,0-7.8,3.286,10.972,10.972,0,0,0-3.252,8.617L26.955,14.021a.91.91,0,0,1,1.3,0Z" fill="#fff"/>
</svg>
