<svg xmlns="http://www.w3.org/2000/svg" width="33.9" height="33.906" viewBox="0 0 33.9 33.906">
  <path id="Union_19" data-name="Union 19" d="M13.333,32.265l-.063-.121H7.484l-.063.121A2.828,2.828,0,0,1,4.78,33.9H2.767A2.625,2.625,0,0,1,0,31.477V29.717a2.633,2.633,0,0,1,2.767-2.486H31.133A2.675,2.675,0,0,1,33.9,29.717h-.063v1.759A2.626,2.626,0,0,1,31.07,33.9H29.057a2.592,2.592,0,0,1-2.516-1.638l-.063-.121H20.692l-.063.121A2.826,2.826,0,0,1,17.988,33.9H15.975q-.072,0-.143,0A2.735,2.735,0,0,1,13.333,32.265Zm14.529-1.516v.728a1.172,1.172,0,0,0,1.258,1.031h2.013a1.22,1.22,0,0,0,1.258-1.031l-.063-1.759a1.171,1.171,0,0,0-1.258-1.031H2.767A1.219,1.219,0,0,0,1.51,29.717v1.759a1.172,1.172,0,0,0,1.258,1.031H4.843A1.22,1.22,0,0,0,6.1,31.477v-.728h8.616v.728a1.172,1.172,0,0,0,1.258,1.031h2.013a1.22,1.22,0,0,0,1.258-1.031v-.728ZM4.4,25.715A1.859,1.859,0,0,1,2.516,23.9V1.819A1.9,1.9,0,0,1,4.4,0H29.5a1.9,1.9,0,0,1,1.887,1.819V23.9A1.821,1.821,0,0,1,29.5,25.715Zm.943-1.456H28.554l-2.39-2.3H7.736ZM27.233,4.791V20.984l2.642,2.547V2.244ZM4.025,23.471l2.7-2.547V4.731l-2.7-2.547ZM22.768,20.5h2.956V5.155H22.768Zm-5.032,0h3.522V5.155H17.736Zm-5.032,0h3.523V5.155H12.7Zm-4.528,0H11.2L11.132,5.155H8.176ZM7.736,3.7H26.227l2.327-2.3H5.346Z" fill="#fff"/>
</svg>
